<svg width="1830" height="465" viewBox="0 0 1830 465" fill="none" xmlns="http://www.w3.org/2000/svg">
  <path fill-rule="evenodd" clip-rule="evenodd"
        d="M1614.97 215.393V340.622L1615.35 340.565C1616.49 358.412 1620.43 373.97 1627.17 387.241C1635.67 403.2 1647.84 415.462 1663.67 424.026C1679.51 432.201 1698.63 436.288 1721.04 436.288C1756.57 436.288 1783.61 426.362 1802.15 406.509C1820.7 386.267 1829.97 356.878 1829.97 318.341C1823.79 325.348 1815.67 330.797 1805.63 334.69C1795.59 338.193 1784 339.945 1770.87 339.945C1757.79 339.945 1742.98 333.12 1735.63 322.73C1733.91 320.292 1732.26 317.521 1731.27 314.704C1729.33 309.196 1728.36 301.992 1728.36 293.089L1727.79 215.393H1800.91C1809.74 215.393 1816.89 208.17 1816.89 199.259V158.276C1816.89 149.365 1809.74 142.141 1800.91 142.141H1727.79V64.5685C1727.79 60.1132 1724.22 56.5014 1719.8 56.5014H1706.08C1702.07 56.5014 1698.22 58.0183 1695.27 60.7519L1569.7 177.167C1567.3 179.388 1565.94 182.522 1565.94 185.806V203.665C1565.94 210.142 1571.14 215.393 1577.55 215.393H1614.97ZM1298.51 318.162C1277.27 330.69 1239.37 338.143 1207.74 338.143C1171.88 338.143 1130.72 330.935 1115.16 293.655L1291.28 293.392C1299.59 293.392 1301.91 286.538 1301.91 283.447C1302.09 281.46 1301.91 279.027 1301.91 279.027C1301.91 232.254 1288.57 195.051 1261.89 167.421C1235.39 139.79 1199.73 125.975 1154.9 125.975C1109.89 125.975 1072.96 140.151 1044.1 168.504C1015.25 196.677 1000.82 232.615 1000.82 276.318C1000.82 313.084 1010.81 344.341 1030.79 370.089C1043.54 390.027 1062.35 405.824 1083.75 417.482C1107.86 430.019 1136.19 436.288 1168.73 436.288C1203.6 436.288 1236.82 427.981 1260.22 408.499C1284.65 388.152 1298.51 355.826 1298.51 318.162ZM1112.43 247.28H1197.1V238.341C1197.1 221.185 1193.38 208.001 1185.94 198.791C1178.68 189.581 1168.33 184.976 1154.9 184.976C1140.75 184.976 1130.13 189.581 1123.05 198.791C1115.97 207.821 1112.43 221.365 1112.43 239.425V247.28ZM1375.65 427.505C1393.15 433.36 1412.48 436.288 1433.63 436.288C1455.51 436.288 1475.02 431.994 1492.16 423.407C1509.67 414.82 1523.16 402.915 1532.64 387.692C1542.49 372.078 1547.41 354.709 1547.41 335.582C1547.41 314.895 1543.22 297.915 1534.83 284.644C1526.44 271.373 1513.31 260.248 1495.44 251.271L1447.31 227.265C1442.2 224.923 1438.74 222.777 1436.91 220.825C1435.09 218.873 1434.18 216.336 1434.18 213.214C1434.18 209.701 1435.27 207.163 1437.46 205.602C1440.01 203.65 1443.66 202.675 1448.4 202.675C1460.44 202.675 1475.39 206.968 1493.26 215.556C1511.12 224.143 1524.62 233.511 1533.73 243.659V155.624C1533.73 154.649 1533.28 153.728 1532.51 153.139C1519.77 143.483 1506.68 136.575 1493.26 132.415C1479.4 128.121 1462.99 125.975 1444.03 125.975C1422.15 125.975 1402.64 130.073 1385.5 138.27C1368.36 146.467 1355.05 157.982 1345.56 172.814C1336.08 187.257 1331.34 203.846 1331.34 222.582C1331.34 241.708 1335.57 251.414 1343.6 264.685C1351.98 277.956 1364.53 290.511 1381.67 299.098L1432.54 324.274C1437.28 326.616 1440.56 328.763 1442.38 330.715C1444.21 332.667 1445.12 335.399 1445.12 338.912C1445.12 342.815 1443.66 345.743 1440.74 347.694C1437.83 349.646 1433.63 350.622 1428.16 350.622C1414.3 350.622 1397.53 345.547 1377.84 335.399C1358.51 324.86 1342.46 312.174 1329.7 297.342V397.469C1329.7 398.329 1330.05 399.154 1330.68 399.742C1343.93 412.156 1358.92 421.411 1375.65 427.505ZM542.243 415.719C542.243 424.521 549.279 431.656 557.959 431.656H641.605C650.284 431.656 657.321 424.521 657.321 415.719V235.718L735.437 336.566C748.116 354.749 765.672 354.478 777.989 336.041L852.674 235.718V415.719C852.674 424.521 859.711 431.656 868.391 431.656H952.68C961.36 431.656 968.396 424.521 968.396 415.719V93.9163C968.396 73.2526 956.445 61.133 936.069 61.133H885.821C873.651 61.133 865.719 63.4488 855.385 77.4002L759.126 198.325C758.405 199.231 757.034 199.247 756.291 198.359L654.656 76.7842C647.729 66.9615 636.553 61.133 624.645 61.133H574.571C554.194 61.133 542.243 73.2527 542.243 93.9163V415.719Z"
        fill="#FAFAFA"/>
  <path fill-rule="evenodd" clip-rule="evenodd"
        d="M406.489 95.2647L413.715 101.939C432.694 120.002 440.339 145.158 440.339 172.979V363.243C440.339 418.223 388.782 464.077 332.067 464.077H184.79C154.114 464.077 131.458 457.005 107.763 439.7L25.9618 367.596C9.98402 350.047 0.289062 326.995 0.289062 301.748V100.473C0.289062 45.4928 46.2654 0.922852 102.98 0.922852H259.966C284.422 0.922852 306.88 9.20982 324.517 23.045L406.489 95.2647ZM156.926 122.804C137.74 122.804 122.186 138.356 122.186 157.541V307.456C122.186 326.641 137.74 342.193 156.926 342.193H282.481C301.667 342.193 317.221 326.641 317.221 307.456V157.541C317.221 138.356 301.667 122.804 282.481 122.804H156.926Z"
        fill="#FAFAFA"/>
</svg>
