<svg width="916" height="883" viewBox="0 0 916 883" fill="none" xmlns="http://www.w3.org/2000/svg">
  <path fill-rule="evenodd" clip-rule="evenodd"
        d="M671.869 108.764L680.17 116.432C701.973 137.185 710.754 166.086 710.754 198.049V416.643C710.754 479.809 651.528 532.49 586.377 532.49H417.191C381.952 532.49 355.926 524.365 328.706 504.484L234.737 421.644C216.382 401.482 205.245 374.998 205.245 345.992V114.747C205.245 51.5814 258.061 0.375244 323.212 0.375244H503.551C531.644 0.375244 557.443 9.89609 577.704 25.7913L671.869 108.764ZM385.184 140.403C363.143 140.403 345.275 158.271 345.275 180.312V352.549C345.275 374.59 363.143 392.458 385.184 392.458H529.415C551.456 392.458 569.323 374.59 569.323 352.549V180.312C569.323 158.271 551.456 140.403 529.415 140.403H385.184Z"
        fill="#FAFAFA"/>
  <path fill-rule="evenodd" clip-rule="evenodd"
        d="M763.064 725.207V814.286L763.335 814.246C764.143 826.94 766.946 838.008 771.744 847.448C777.789 858.8 786.445 867.522 797.71 873.614C808.976 879.429 822.577 882.336 838.514 882.336C863.793 882.336 883.027 875.276 896.216 861.154C909.405 846.755 915.999 825.85 915.999 798.437C911.603 803.421 905.833 807.298 898.689 810.067C891.545 812.559 883.302 813.805 873.959 813.805C864.66 813.805 854.124 808.95 848.895 801.559C847.669 799.825 846.497 797.854 845.791 795.85C844.412 791.932 843.723 786.807 843.723 780.475L843.321 725.207H895.333C901.612 725.207 906.701 720.069 906.701 713.73V684.577C906.701 678.239 901.612 673.101 895.333 673.101H843.321V617.92C843.321 614.751 840.776 612.182 837.637 612.182H827.872C825.024 612.182 822.28 613.261 820.183 615.205L730.861 698.015C729.157 699.595 728.186 701.824 728.186 704.16V716.864C728.186 721.472 731.886 725.207 736.45 725.207H763.064ZM537.957 798.309C522.85 807.221 495.891 812.523 473.392 812.523C447.88 812.523 418.603 807.395 407.532 780.877L532.812 780.69C538.726 780.69 540.373 775.814 540.373 773.616C540.503 772.202 540.373 770.472 540.373 770.472C540.373 737.2 530.885 710.737 511.908 691.082C493.059 671.428 467.692 661.6 435.805 661.6C403.788 661.6 377.517 671.685 356.991 691.853C336.464 711.893 326.201 737.457 326.201 768.545C326.201 794.697 333.306 816.931 347.517 835.246C356.589 849.429 369.968 860.667 385.19 868.959C402.346 877.877 422.497 882.336 445.643 882.336C470.445 882.336 494.074 876.427 510.719 862.569C528.102 848.095 537.957 825.101 537.957 798.309ZM405.596 747.889H465.82V741.53C465.82 729.326 463.173 719.949 457.88 713.397C452.716 706.845 445.358 703.57 435.805 703.57C425.735 703.57 418.183 706.845 413.148 713.397C408.113 719.82 405.596 729.455 405.596 742.301V747.889ZM592.829 876.089C605.28 880.254 619.029 882.336 634.074 882.336C649.638 882.336 663.516 879.282 675.708 873.174C688.159 867.065 697.757 858.597 704.502 847.768C711.506 836.662 715.008 824.306 715.008 810.701C715.008 795.985 712.024 783.907 706.058 774.467C700.092 765.027 690.753 757.114 678.043 750.728L643.802 733.652C640.17 731.986 637.706 730.459 636.409 729.071C635.112 727.682 634.463 725.877 634.463 723.656C634.463 721.157 635.241 719.353 636.798 718.242C638.614 716.854 641.208 716.16 644.58 716.16C653.14 716.16 663.776 719.214 676.486 725.322C689.197 731.431 698.795 738.094 705.28 745.313V683.139C705.28 682.163 704.829 681.239 704.049 680.653C695.098 673.926 685.911 669.102 676.486 666.182C666.629 663.127 654.956 661.6 641.467 661.6C625.903 661.6 612.025 664.516 599.833 670.346C587.641 676.177 578.173 684.368 571.428 694.919C564.684 705.192 561.312 716.993 561.312 730.32C561.312 743.925 564.322 750.829 570.029 760.269C575.995 769.71 584.917 778.64 597.109 784.749L633.296 802.657C636.668 804.323 639.003 805.85 640.3 807.239C641.597 808.627 642.245 810.571 642.245 813.069C642.245 815.846 641.208 817.928 639.132 819.317C637.057 820.705 634.074 821.399 630.183 821.399C620.326 821.399 608.393 817.79 594.385 810.571C580.637 803.074 569.223 794.05 560.144 783.499V854.333C560.144 855.194 560.495 856.02 561.126 856.606C570.483 865.303 581.051 871.797 592.829 876.089ZM0 867.705C0 873.966 5.00517 879.042 11.1794 879.042H70.6792C76.8534 879.042 81.8585 873.966 81.8585 867.705V739.665L137.425 811.401C146.444 824.335 158.932 824.142 167.694 811.027L220.82 739.665V867.705C220.82 873.966 225.825 879.042 231.999 879.042H291.957C298.131 879.042 303.137 873.966 303.137 867.705V638.796C303.137 624.098 294.635 615.477 280.141 615.477H244.398C235.741 615.477 230.099 617.124 222.748 627.048L154.681 712.557C153.959 713.464 152.586 713.48 151.842 712.591L79.9631 626.61C75.0359 619.623 67.086 615.477 58.6154 615.477H22.9957C8.50127 615.477 0 624.098 0 638.796V867.705Z"
        fill="#FAFAFA"/>
</svg>
