<svg width="2500" height="1085" viewBox="0 0 2500 1085" fill="none" xmlns="http://www.w3.org/2000/svg">
<rect width="2500" height="1085" fill="#202124"/>
<path fill-rule="evenodd" clip-rule="evenodd" d="M1949.84 525.393V650.622L1950.22 650.565C1951.36 668.411 1955.3 683.97 1962.04 697.24C1970.54 713.2 1982.71 725.462 1998.55 734.026C2014.38 742.2 2033.5 746.288 2055.91 746.288C2091.45 746.288 2118.49 736.361 2137.03 716.509C2155.57 696.267 2164.84 666.878 2164.84 628.341C2158.66 635.347 2150.55 640.797 2140.5 644.69C2130.46 648.193 2118.87 649.945 2105.74 649.945C2092.66 649.945 2077.85 643.12 2070.5 632.729C2068.78 630.292 2067.13 627.521 2066.14 624.703C2064.2 619.196 2063.23 611.991 2063.23 603.089L2062.67 525.393H2135.79C2144.61 525.393 2151.77 518.17 2151.77 509.259V468.275C2151.77 459.365 2144.61 452.141 2135.79 452.141H2062.67V374.568C2062.67 370.113 2059.09 366.501 2054.68 366.501H2040.95C2036.95 366.501 2033.09 368.018 2030.14 370.752L1904.57 487.167C1902.17 489.388 1900.81 492.522 1900.81 495.806V513.664C1900.81 520.142 1906.01 525.393 1912.43 525.393H1949.84ZM1633.38 628.161C1612.14 640.689 1574.25 648.143 1542.62 648.143C1506.75 648.143 1465.59 640.935 1450.03 603.655L1626.15 603.392C1634.46 603.392 1636.78 596.538 1636.78 593.447C1636.96 591.46 1636.78 589.027 1636.78 589.027C1636.78 542.253 1623.44 505.051 1596.76 477.42C1570.26 449.79 1534.6 435.974 1489.77 435.974C1444.77 435.974 1407.83 450.151 1378.98 478.504C1350.12 506.677 1335.69 542.615 1335.69 586.318C1335.69 623.084 1345.68 654.34 1365.66 680.088C1378.41 700.026 1397.22 715.824 1418.62 727.481C1442.74 740.019 1471.07 746.288 1503.61 746.288C1538.47 746.288 1571.69 737.981 1595.09 718.498C1619.53 698.152 1633.38 665.826 1633.38 628.161ZM1447.31 557.28H1531.97V548.341C1531.97 531.184 1528.25 518.001 1520.81 508.791C1513.55 499.581 1503.2 494.975 1489.77 494.975C1475.62 494.975 1465 499.581 1457.92 508.791C1450.85 517.82 1447.31 531.365 1447.31 549.424V557.28ZM1710.52 737.505C1728.03 743.36 1747.35 746.288 1768.5 746.288C1790.38 746.288 1809.89 741.994 1827.03 733.407C1844.54 724.819 1858.03 712.914 1867.51 697.691C1877.36 682.078 1882.28 664.708 1882.28 645.582C1882.28 624.895 1878.09 607.915 1869.7 594.644C1861.31 581.373 1848.19 570.248 1830.32 561.271L1782.18 537.265C1777.07 534.923 1773.61 532.776 1771.79 530.825C1769.96 528.873 1769.05 526.336 1769.05 523.213C1769.05 519.7 1770.15 517.163 1772.33 515.602C1774.89 513.65 1778.53 512.674 1783.27 512.674C1795.31 512.674 1810.26 516.968 1828.13 525.555C1846 534.143 1859.49 543.511 1868.61 553.659V465.624C1868.61 464.649 1868.16 463.728 1867.38 463.139C1854.64 453.483 1841.55 446.575 1828.13 442.415C1814.27 438.121 1797.86 435.974 1778.9 435.974C1757.02 435.974 1737.51 440.073 1720.37 448.27C1703.23 456.467 1689.92 467.981 1680.44 482.814C1670.96 497.256 1666.21 513.845 1666.21 532.581C1666.21 551.708 1670.45 561.413 1678.47 574.685C1686.86 587.956 1699.4 600.511 1716.54 609.098L1767.41 634.274C1772.15 636.616 1775.43 638.763 1777.26 640.715C1779.08 642.666 1779.99 645.399 1779.99 648.912C1779.99 652.815 1778.53 655.742 1775.62 657.694C1772.7 659.646 1768.5 660.622 1763.03 660.622C1749.18 660.622 1732.4 655.547 1712.71 645.399C1693.38 634.86 1677.34 622.174 1664.57 607.341V707.469C1664.57 708.329 1664.92 709.154 1665.55 709.742C1678.81 722.156 1693.8 731.41 1710.52 737.505ZM877.115 725.719C877.115 734.521 884.152 741.656 892.832 741.656H976.477C985.157 741.656 992.193 734.521 992.193 725.719V545.718L1070.31 646.565C1082.99 664.749 1100.54 664.478 1112.86 646.041L1187.55 545.718V725.719C1187.55 734.521 1194.58 741.656 1203.26 741.656H1287.55C1296.23 741.656 1303.27 734.521 1303.27 725.719V403.916C1303.27 383.252 1291.32 371.133 1270.94 371.133H1220.69C1208.52 371.133 1200.59 373.449 1190.26 387.4L1094 508.324C1093.28 509.23 1091.91 509.247 1091.16 508.358L989.529 386.784C982.602 376.961 971.426 371.133 959.518 371.133H909.443C889.067 371.133 877.115 383.252 877.115 403.916V725.719Z" fill="#FAFAFA"/>
<path fill-rule="evenodd" clip-rule="evenodd" d="M741.36 405.265L748.587 411.939C767.566 430.002 775.21 455.158 775.21 482.979V673.243C775.21 728.223 723.654 774.077 666.939 774.077H519.661C488.986 774.077 466.329 767.005 442.634 749.7L360.834 677.596C344.856 660.047 335.161 636.995 335.161 611.748V410.473C335.161 355.493 381.137 310.923 437.852 310.923H594.838C619.293 310.923 641.752 319.21 659.389 333.045L741.36 405.265ZM491.798 432.804C472.611 432.804 457.057 448.356 457.057 467.541V617.456C457.057 636.641 472.611 652.193 491.798 652.193H617.352C636.539 652.193 652.093 636.641 652.093 617.456V467.541C652.093 448.356 636.539 432.804 617.352 432.804H491.798Z" fill="#FAFAFA"/>
</svg>
