<svg width="1838" height="471" viewBox="0 0 1838 471" fill="none" xmlns="http://www.w3.org/2000/svg">
  <g filter="url(#filter0_d_1050_588)">
    <path fill-rule="evenodd" clip-rule="evenodd"
          d="M1618.96 214.399V339.586L1619.34 339.53C1620.48 357.37 1624.42 372.923 1631.17 386.189C1639.67 402.144 1651.84 414.401 1667.68 422.962C1683.52 431.134 1702.64 435.22 1725.05 435.22C1760.59 435.22 1787.64 425.297 1806.18 405.451C1824.73 385.216 1834 355.837 1834 317.312C1827.82 324.317 1819.7 329.765 1809.66 333.656C1799.61 337.158 1788.02 338.909 1774.89 338.909C1761.81 338.909 1747 332.087 1739.65 321.7C1737.92 319.263 1736.27 316.493 1735.28 313.676C1733.34 308.171 1732.37 300.969 1732.37 292.069L1731.81 214.399H1804.94C1813.77 214.399 1820.93 207.178 1820.93 198.27V157.3C1820.93 148.393 1813.77 141.172 1804.94 141.172H1731.81V63.6244C1731.81 59.1706 1728.23 55.5601 1723.82 55.5601H1710.09C1706.08 55.5601 1702.23 57.0764 1699.28 59.8091L1573.68 176.185C1571.29 178.406 1569.92 181.539 1569.92 184.822V202.674C1569.92 209.15 1575.13 214.399 1581.54 214.399H1618.96ZM1302.45 317.133C1281.21 329.657 1243.3 337.108 1211.67 337.108C1175.8 337.108 1134.63 329.902 1119.06 292.635L1295.21 292.372C1303.53 292.372 1305.85 285.52 1305.85 282.43C1306.03 280.444 1305.85 278.012 1305.85 278.012C1305.85 231.254 1292.51 194.064 1265.82 166.442C1239.32 138.821 1203.65 125.01 1158.82 125.01C1113.8 125.01 1076.86 139.182 1048 167.526C1019.14 195.689 1004.71 231.615 1004.71 275.304C1004.71 312.057 1014.7 343.303 1034.68 369.043C1047.43 388.974 1066.25 404.767 1087.65 416.42C1111.77 428.953 1140.1 435.22 1172.65 435.22C1207.52 435.22 1240.75 426.916 1264.15 407.44C1288.59 387.1 1302.45 354.785 1302.45 317.133ZM1116.34 246.275H1201.02V237.339C1201.02 220.188 1197.3 207.01 1189.86 197.802C1182.6 188.595 1172.25 183.992 1158.82 183.992C1144.66 183.992 1134.04 188.595 1126.96 197.802C1119.88 206.829 1116.34 220.369 1116.34 238.422V246.275ZM1379.6 426.441C1397.11 432.294 1416.44 435.22 1437.6 435.22C1459.48 435.22 1478.99 430.928 1496.14 422.344C1513.64 413.759 1527.14 401.858 1536.62 386.64C1546.47 371.032 1551.39 353.668 1551.39 334.548C1551.39 313.868 1547.2 296.894 1538.81 283.627C1530.42 270.36 1517.29 259.239 1499.42 250.265L1451.27 226.267C1446.17 223.926 1442.7 221.78 1440.88 219.829C1439.05 217.878 1438.14 215.342 1438.14 212.22C1438.14 208.708 1439.24 206.172 1441.43 204.611C1443.98 202.66 1447.63 201.685 1452.37 201.685C1464.4 201.685 1479.36 205.977 1497.23 214.561C1515.1 223.146 1528.6 232.511 1537.72 242.656V154.65C1537.72 153.675 1537.27 152.754 1536.49 152.165C1523.74 142.513 1510.66 135.607 1497.23 131.448C1483.37 127.156 1466.96 125.01 1447.99 125.01C1426.11 125.01 1406.59 129.107 1389.45 137.301C1372.31 145.496 1359 157.007 1349.51 171.834C1340.03 186.272 1335.29 202.855 1335.29 221.585C1335.29 240.705 1339.52 250.407 1347.55 263.674C1355.93 276.941 1368.48 289.492 1385.62 298.076L1436.5 323.244C1441.24 325.585 1444.53 327.731 1446.35 329.682C1448.17 331.633 1449.09 334.365 1449.09 337.877C1449.09 341.779 1447.63 344.705 1444.71 346.656C1441.79 348.607 1437.6 349.583 1432.12 349.583C1418.26 349.583 1401.49 344.51 1381.79 334.365C1362.46 323.829 1346.41 311.148 1333.65 296.32V396.413C1333.65 397.274 1334 398.099 1334.63 398.687C1347.88 411.097 1362.87 420.348 1379.6 426.441ZM546.05 414.658C546.05 423.457 553.087 430.59 561.769 430.59H645.429C654.11 430.59 661.148 423.457 661.148 414.658V234.717L739.278 335.531C751.959 353.708 769.518 353.437 781.837 335.007L856.536 234.717V414.658C856.536 423.457 863.574 430.59 872.255 430.59H956.559C965.241 430.59 972.278 423.457 972.278 414.658V92.9624C972.278 72.3057 960.325 60.1901 939.945 60.1901H889.689C877.516 60.1901 869.583 62.5051 859.247 76.4519L762.971 197.337C762.249 198.242 760.879 198.259 760.136 197.371L658.483 75.8361C651.555 66.0166 640.377 60.1901 628.467 60.1901H578.383C558.003 60.1901 546.05 72.3057 546.05 92.9624V414.658Z"
          fill="#FAFAFA"/>
    <path fill-rule="evenodd" clip-rule="evenodd"
          d="M410.271 94.3105L417.499 100.982C436.481 119.04 444.127 144.187 444.127 171.999V362.2C444.127 417.162 392.561 463 335.836 463H188.533C157.852 463 135.192 455.93 111.492 438.632L29.6772 366.551C13.6967 349.008 4 325.964 4 300.726V99.5167C4 44.5551 49.9844 0 106.709 0H263.723C288.183 0 310.645 8.28421 328.285 22.1148L410.271 94.3105ZM160.665 121.841C141.475 121.841 125.918 137.388 125.918 156.566V306.432C125.918 325.61 141.475 341.157 160.665 341.157H286.241C305.431 341.157 320.988 325.61 320.988 306.432V156.566C320.988 137.388 305.431 121.841 286.241 121.841H160.665Z"
          fill="#FAFAFA"/>
  </g>
  <defs>
    <filter id="filter0_d_1050_588" x="0" y="0" width="1838" height="471" filterUnits="userSpaceOnUse"
            color-interpolation-filters="sRGB">
      <feFlood flood-opacity="0" result="BackgroundImageFix"/>
      <feColorMatrix in="SourceAlpha" type="matrix" values="0 0 0 0 0 0 0 0 0 0 0 0 0 0 0 0 0 0 127 0"
                     result="hardAlpha"/>
      <feOffset dy="4"/>
      <feGaussianBlur stdDeviation="2"/>
      <feComposite in2="hardAlpha" operator="out"/>
      <feColorMatrix type="matrix" values="0 0 0 0 0 0 0 0 0 0 0 0 0 0 0 0 0 0 0.25 0"/>
      <feBlend mode="normal" in2="BackgroundImageFix" result="effect1_dropShadow_1050_588"/>
      <feBlend mode="normal" in="SourceGraphic" in2="effect1_dropShadow_1050_588" result="shape"/>
    </filter>
  </defs>
</svg>
