<svg width="924" height="900" viewBox="0 0 924 900" fill="none" xmlns="http://www.w3.org/2000/svg">
  <g filter="url(#filter0_d_1050_1175)">
    <path fill-rule="evenodd" clip-rule="evenodd"
          d="M675.869 118.389L684.17 126.056C705.973 146.81 714.754 175.711 714.754 207.674V426.268C714.754 489.434 655.528 542.115 590.377 542.115H421.191C385.952 542.115 359.926 533.99 332.706 514.109L238.737 431.269C220.382 411.107 209.245 384.623 209.245 355.617V124.372C209.245 61.2062 262.061 10 327.212 10H507.551C535.644 10 561.444 19.5208 581.704 35.416L675.869 118.389ZM389.184 150.028C367.143 150.028 349.275 167.896 349.275 189.937V362.174C349.275 384.215 367.143 402.083 389.184 402.083H533.415C555.456 402.083 573.324 384.215 573.324 362.174V189.937C573.324 167.896 555.456 150.028 533.415 150.028H389.184Z"
          fill="#FAFAFA"/>
    <path fill-rule="evenodd" clip-rule="evenodd"
          d="M767.064 734.832V823.911L767.335 823.871C768.143 836.565 770.946 847.632 775.744 857.072C781.789 868.425 790.445 877.147 801.71 883.239C812.976 889.054 826.577 891.961 842.514 891.961C867.793 891.961 887.027 884.9 900.216 870.779C913.405 856.38 919.999 835.474 919.999 808.062C915.603 813.046 909.833 816.922 902.689 819.691C895.545 822.183 887.302 823.429 877.959 823.429C868.66 823.429 858.124 818.575 852.895 811.184C851.669 809.449 850.497 807.478 849.791 805.474C848.412 801.557 847.723 796.432 847.723 790.099L847.321 734.832H899.333C905.612 734.832 910.701 729.694 910.701 723.355V694.202C910.701 687.864 905.612 682.725 899.333 682.725H847.321V627.545C847.321 624.376 844.776 621.807 841.637 621.807H831.872C829.024 621.807 826.28 622.886 824.183 624.83L734.861 707.64C733.157 709.22 732.186 711.449 732.186 713.785V726.489C732.186 731.096 735.886 734.832 740.45 734.832H767.064ZM541.957 807.934C526.85 816.846 499.891 822.147 477.392 822.147C451.88 822.147 422.603 817.02 411.532 790.502L536.812 790.315C542.726 790.315 544.373 785.439 544.373 783.24C544.503 781.827 544.373 780.096 544.373 780.096C544.373 746.825 534.885 720.362 515.908 700.707C497.059 681.052 471.692 671.225 439.805 671.225C407.788 671.225 381.517 681.309 360.991 701.478C340.464 721.518 330.201 747.082 330.201 778.169C330.201 804.322 337.306 826.556 351.517 844.871C360.589 859.054 373.968 870.291 389.19 878.584C406.346 887.502 426.497 891.961 449.643 891.961C474.445 891.961 498.074 886.052 514.719 872.194C532.102 857.72 541.957 834.726 541.957 807.934ZM409.596 757.514H469.82V751.155C469.82 738.951 467.173 729.573 461.88 723.022C456.716 716.47 449.358 713.194 439.805 713.194C429.735 713.194 422.183 716.47 417.148 723.022C412.113 729.445 409.596 739.08 409.596 751.926V757.514ZM596.829 885.714C609.28 889.879 623.029 891.961 638.074 891.961C653.638 891.961 667.516 888.907 679.708 882.798C692.159 876.69 701.757 868.221 708.502 857.393C715.506 846.287 719.008 833.931 719.008 820.326C719.008 805.61 716.024 793.532 710.058 784.092C704.092 774.652 694.753 766.738 682.043 760.352L647.802 743.277C644.17 741.611 641.706 740.084 640.409 738.695C639.112 737.307 638.463 735.502 638.463 733.281C638.463 730.782 639.241 728.977 640.798 727.867C642.614 726.478 645.208 725.784 648.58 725.784C657.14 725.784 667.776 728.839 680.486 734.947C693.197 741.055 702.795 747.719 709.28 754.938V692.764C709.28 691.788 708.829 690.864 708.049 690.278C699.098 683.55 689.911 678.727 680.486 675.806C670.629 672.752 658.956 671.225 645.467 671.225C629.903 671.225 616.025 674.14 603.833 679.971C591.641 685.802 582.173 693.993 575.428 704.544C568.684 714.817 565.312 726.617 565.312 739.945C565.312 753.55 568.322 760.454 574.029 769.894C579.995 779.334 588.917 788.265 601.109 794.373L637.296 812.282C640.668 813.948 643.003 815.475 644.3 816.864C645.597 818.252 646.245 820.195 646.245 822.694C646.245 825.471 645.208 827.553 643.132 828.941C641.057 830.33 638.074 831.024 634.183 831.024C624.326 831.024 612.393 827.414 598.385 820.195C584.637 812.699 573.223 803.675 564.144 793.124V863.957C564.144 864.819 564.495 865.645 565.126 866.231C574.483 874.928 585.051 881.422 596.829 885.714ZM4 877.33C4 883.591 9.00517 888.667 15.1794 888.667H74.6792C80.8534 888.667 85.8585 883.591 85.8585 877.33V749.29L141.425 821.025C150.444 833.96 162.932 833.767 171.694 820.652L224.82 749.29V877.33C224.82 883.591 229.825 888.667 235.999 888.667H295.957C302.131 888.667 307.137 883.591 307.137 877.33V648.421C307.137 633.722 298.635 625.101 284.141 625.101H248.398C239.741 625.101 234.099 626.749 226.748 636.673L158.681 722.181C157.959 723.089 156.586 723.105 155.842 722.215L83.9631 636.235C79.0359 629.247 71.086 625.101 62.6154 625.101H26.9957C12.5013 625.101 4 633.722 4 648.421V877.33Z"
          fill="#FAFAFA"/>
  </g>
  <defs>
    <filter id="filter0_d_1050_1175" x="0" y="0" width="924" height="900" filterUnits="userSpaceOnUse"
            color-interpolation-filters="sRGB">
      <feFlood flood-opacity="0" result="BackgroundImageFix"/>
      <feColorMatrix in="SourceAlpha" type="matrix" values="0 0 0 0 0 0 0 0 0 0 0 0 0 0 0 0 0 0 127 0"
                     result="hardAlpha"/>
      <feOffset dy="4"/>
      <feGaussianBlur stdDeviation="2"/>
      <feComposite in2="hardAlpha" operator="out"/>
      <feColorMatrix type="matrix" values="0 0 0 0 0 0 0 0 0 0 0 0 0 0 0 0 0 0 0.25 0"/>
      <feBlend mode="normal" in2="BackgroundImageFix" result="effect1_dropShadow_1050_1175"/>
      <feBlend mode="normal" in="SourceGraphic" in2="effect1_dropShadow_1050_1175" result="shape"/>
    </filter>
  </defs>
</svg>
