<svg width="924" height="892" viewBox="0 0 924 892" fill="none" xmlns="http://www.w3.org/2000/svg">
  <g filter="url(#filter0_d_1050_1165)">
    <path fill-rule="evenodd" clip-rule="evenodd"
          d="M675.869 108.389L684.17 116.056C705.973 136.81 714.754 165.711 714.754 197.674V416.268C714.754 479.434 655.528 532.115 590.377 532.115H421.191C385.952 532.115 359.926 523.99 332.706 504.109L238.737 421.269C220.382 401.107 209.245 374.623 209.245 345.617V114.372C209.245 51.2062 262.061 0 327.212 0H507.551C535.644 0 561.444 9.52085 581.704 25.416L675.869 108.389ZM389.184 140.028C367.143 140.028 349.275 157.896 349.275 179.937V352.174C349.275 374.215 367.143 392.083 389.184 392.083H533.415C555.456 392.083 573.324 374.215 573.324 352.174V179.937C573.324 157.896 555.456 140.028 533.415 140.028H389.184Z"
          fill="#202124"/>
    <path fill-rule="evenodd" clip-rule="evenodd"
          d="M767.064 724.832V813.911L767.335 813.871C768.143 826.565 770.946 837.632 775.744 847.072C781.789 858.425 790.445 867.147 801.71 873.239C812.976 879.054 826.577 881.961 842.514 881.961C867.793 881.961 887.027 874.9 900.216 860.779C913.405 846.38 919.999 825.474 919.999 798.062C915.603 803.046 909.833 806.922 902.689 809.691C895.545 812.183 887.302 813.429 877.959 813.429C868.66 813.429 858.124 808.575 852.895 801.183C851.669 799.449 850.497 797.478 849.791 795.474C848.412 791.557 847.723 786.432 847.723 780.099L847.321 724.832H899.333C905.612 724.832 910.701 719.693 910.701 713.355V684.202C910.701 677.864 905.612 672.725 899.333 672.725H847.321V617.545C847.321 614.376 844.776 611.807 841.637 611.807H831.872C829.024 611.807 826.28 612.886 824.183 614.83L734.861 697.64C733.157 699.22 732.186 701.449 732.186 703.785V716.489C732.186 721.096 735.886 724.832 740.45 724.832H767.064ZM541.957 797.934C526.85 806.846 499.891 812.148 477.392 812.148C451.88 812.148 422.603 807.02 411.532 780.502L536.812 780.315C542.726 780.315 544.373 775.439 544.373 773.24C544.503 771.827 544.373 770.097 544.373 770.097C544.373 736.825 534.885 710.362 515.908 690.707C497.059 671.053 471.692 661.225 439.805 661.225C407.788 661.225 381.517 671.309 360.991 691.478C340.464 711.518 330.201 737.082 330.201 768.17C330.201 794.322 337.306 816.556 351.517 834.871C360.589 849.054 373.968 860.291 389.19 868.584C406.346 877.502 426.497 881.961 449.643 881.961C474.445 881.961 498.074 876.052 514.719 862.194C532.102 847.72 541.957 824.726 541.957 797.934ZM409.596 747.514H469.82V741.155C469.82 728.951 467.173 719.574 461.88 713.022C456.716 706.47 449.358 703.195 439.805 703.195C429.735 703.195 422.183 706.47 417.148 713.022C412.113 719.445 409.596 729.08 409.596 741.926V747.514ZM596.829 875.714C609.28 879.879 623.029 881.961 638.074 881.961C653.638 881.961 667.516 878.907 679.708 872.798C692.159 866.69 701.757 858.222 708.502 847.393C715.506 836.287 719.008 823.931 719.008 810.326C719.008 795.61 716.024 783.532 710.058 774.092C704.092 764.652 694.753 756.739 682.043 750.353L647.802 733.277C644.17 731.611 641.706 730.084 640.409 728.695C639.112 727.307 638.463 725.502 638.463 723.281C638.463 720.782 639.241 718.978 640.798 717.867C642.614 716.479 645.208 715.784 648.58 715.784C657.14 715.784 667.776 718.839 680.486 724.947C693.197 731.056 702.795 737.719 709.28 744.938V682.764C709.28 681.788 708.829 680.864 708.049 680.278C699.098 673.55 689.911 668.727 680.486 665.807C670.629 662.752 658.956 661.225 645.467 661.225C629.903 661.225 616.025 664.141 603.833 669.971C591.641 675.802 582.173 683.993 575.428 694.544C568.684 704.817 565.312 716.617 565.312 729.945C565.312 743.55 568.322 750.454 574.029 759.894C579.995 769.335 588.917 778.265 601.109 784.374L637.296 802.282C640.668 803.948 643.003 805.475 644.3 806.864C645.597 808.252 646.245 810.196 646.245 812.694C646.245 815.471 645.208 817.553 643.132 818.942C641.057 820.33 638.074 821.024 634.183 821.024C624.326 821.024 612.393 817.415 598.385 810.196C584.637 802.699 573.223 793.675 564.144 783.124V853.958C564.144 854.819 564.495 855.645 565.126 856.231C574.483 864.928 585.051 871.422 596.829 875.714ZM4 867.33C4 873.591 9.00517 878.667 15.1794 878.667H74.6792C80.8534 878.667 85.8585 873.591 85.8585 867.33V739.29L141.425 811.025C150.444 823.96 162.932 823.767 171.694 810.652L224.82 739.29V867.33C224.82 873.591 229.825 878.667 235.999 878.667H295.957C302.131 878.667 307.137 873.591 307.137 867.33V638.421C307.137 623.722 298.635 615.101 284.141 615.101H248.398C239.741 615.101 234.099 616.749 226.748 626.673L158.681 712.181C157.959 713.089 156.586 713.105 155.842 712.215L83.9631 626.235C79.0359 619.247 71.086 615.101 62.6154 615.101H26.9957C12.5013 615.101 4 623.722 4 638.421V867.33Z"
          fill="#202124"/>
  </g>
  <defs>
    <filter id="filter0_d_1050_1165" x="0" y="0" width="924" height="900" filterUnits="userSpaceOnUse"
            color-interpolation-filters="sRGB">
      <feFlood flood-opacity="0" result="BackgroundImageFix"/>
      <feColorMatrix in="SourceAlpha" type="matrix" values="0 0 0 0 0 0 0 0 0 0 0 0 0 0 0 0 0 0 127 0"
                     result="hardAlpha"/>
      <feOffset dy="4"/>
      <feGaussianBlur stdDeviation="2"/>
      <feComposite in2="hardAlpha" operator="out"/>
      <feColorMatrix type="matrix" values="0 0 0 0 0 0 0 0 0 0 0 0 0 0 0 0 0 0 0.25 0"/>
      <feBlend mode="normal" in2="BackgroundImageFix" result="effect1_dropShadow_1050_1165"/>
      <feBlend mode="normal" in="SourceGraphic" in2="effect1_dropShadow_1050_1165" result="shape"/>
    </filter>
  </defs>
</svg>
