<svg width="512" height="513" viewBox="0 0 512 513" fill="none" xmlns="http://www.w3.org/2000/svg">
  <circle cx="256" cy="256.12" r="256" fill="#202124"/>
  <rect y="0.119629" width="512" height="512" rx="256" fill="#202124"/>
  <path fill-rule="evenodd" clip-rule="evenodd"
        d="M383.107 162.487L388.037 167.04C400.985 179.365 406.2 196.528 406.2 215.509V345.323C406.2 382.834 371.028 414.119 332.338 414.119H231.865C210.939 414.119 195.483 409.294 179.318 397.488L123.514 348.292C112.614 336.319 106 320.591 106 303.366V166.04C106 128.528 137.365 98.1194 176.055 98.1194H283.151C299.834 98.1194 315.155 103.773 327.187 113.213L383.107 162.487ZM212.504 181.278C199.61 181.278 189.158 191.731 189.158 204.625V307.616C189.158 320.51 199.61 330.962 212.504 330.962H298.864C311.758 330.962 322.21 320.51 322.21 307.615V204.625C322.21 191.731 311.758 181.278 298.864 181.278H212.504Z"
        fill="#FEFEFE"/>
</svg>
