<svg width="1830" height="463" viewBox="0 0 1830 463" fill="none" xmlns="http://www.w3.org/2000/svg">
<path fill-rule="evenodd" clip-rule="evenodd" d="M1614.96 214.399V339.586L1615.34 339.529C1616.48 357.37 1620.42 372.923 1627.17 386.189C1635.67 402.144 1647.84 414.401 1663.68 422.962C1679.52 431.134 1698.64 435.22 1721.05 435.22C1756.59 435.22 1783.64 425.297 1802.18 405.451C1820.73 385.216 1830 355.837 1830 317.312C1823.82 324.317 1815.7 329.765 1805.66 333.656C1795.61 337.158 1784.02 338.909 1770.89 338.909C1757.81 338.909 1743 332.087 1735.65 321.7C1733.92 319.263 1732.27 316.493 1731.28 313.676C1729.34 308.171 1728.37 300.968 1728.37 292.069L1727.81 214.399H1800.94C1809.77 214.399 1816.93 207.178 1816.93 198.27V157.3C1816.93 148.393 1809.77 141.172 1800.94 141.172H1727.81V63.6243C1727.81 59.1705 1724.23 55.56 1719.82 55.56H1706.09C1702.08 55.56 1698.23 57.0763 1695.28 59.809L1569.68 176.185C1567.29 178.406 1565.92 181.538 1565.92 184.821V202.674C1565.92 209.15 1571.13 214.399 1577.54 214.399H1614.96ZM1298.45 317.133C1277.21 329.657 1239.3 337.108 1207.67 337.108C1171.8 337.108 1130.63 329.902 1115.06 292.635L1291.21 292.372C1299.53 292.372 1301.85 285.52 1301.85 282.43C1302.03 280.444 1301.85 278.012 1301.85 278.012C1301.85 231.254 1288.51 194.064 1261.82 166.442C1235.32 138.821 1199.65 125.01 1154.82 125.01C1109.8 125.01 1072.86 139.182 1044 167.526C1015.14 195.689 1000.71 231.615 1000.71 275.304C1000.71 312.057 1010.7 343.303 1030.68 369.043C1043.43 388.974 1062.25 404.767 1083.65 416.42C1107.77 428.953 1136.1 435.22 1168.65 435.22C1203.52 435.22 1236.75 426.916 1260.15 407.44C1284.59 387.1 1298.45 354.785 1298.45 317.133ZM1112.34 246.275H1197.02V237.339C1197.02 220.188 1193.3 207.009 1185.86 197.802C1178.6 188.595 1168.25 183.991 1154.82 183.991C1140.66 183.991 1130.04 188.595 1122.96 197.802C1115.88 206.829 1112.34 220.369 1112.34 238.422V246.275ZM1375.6 426.441C1393.11 432.294 1412.44 435.22 1433.6 435.22C1455.48 435.22 1474.99 430.928 1492.14 422.343C1509.64 413.759 1523.14 401.858 1532.62 386.64C1542.47 371.032 1547.39 353.668 1547.39 334.548C1547.39 313.867 1543.2 296.894 1534.81 283.627C1526.42 270.36 1513.29 259.239 1495.42 250.265L1447.27 226.267C1442.17 223.926 1438.7 221.78 1436.88 219.829C1435.05 217.878 1434.14 215.342 1434.14 212.22C1434.14 208.708 1435.24 206.172 1437.43 204.611C1439.98 202.66 1443.63 201.685 1448.37 201.685C1460.4 201.685 1475.36 205.977 1493.23 214.561C1511.1 223.146 1524.6 232.51 1533.72 242.656V154.65C1533.72 153.675 1533.27 152.754 1532.49 152.165C1519.74 142.512 1506.66 135.607 1493.23 131.448C1479.37 127.156 1462.96 125.01 1443.99 125.01C1422.11 125.01 1402.59 129.107 1385.45 137.301C1368.31 145.496 1355 157.006 1345.51 171.834C1336.03 186.272 1331.29 202.855 1331.29 221.585C1331.29 240.705 1335.52 250.407 1343.54 263.674C1351.93 276.941 1364.48 289.491 1381.62 298.076L1432.5 323.244C1437.24 325.585 1440.53 327.731 1442.35 329.682C1444.17 331.633 1445.08 334.365 1445.08 337.876C1445.08 341.778 1443.63 344.705 1440.71 346.656C1437.79 348.607 1433.6 349.582 1428.12 349.582C1414.26 349.582 1397.49 344.51 1377.79 334.365C1358.46 323.829 1342.41 311.148 1329.65 296.32V396.413C1329.65 397.274 1330 398.099 1330.63 398.687C1343.88 411.097 1358.87 420.348 1375.6 426.441ZM542.05 414.658C542.05 423.457 549.087 430.59 557.769 430.59H641.429C650.11 430.59 657.148 423.457 657.148 414.658V234.717L735.278 335.531C747.959 353.708 765.518 353.437 777.837 335.006L852.536 234.717V414.658C852.536 423.457 859.573 430.59 868.255 430.59H952.559C961.24 430.59 968.278 423.457 968.278 414.658V92.9624C968.278 72.3056 956.325 60.19 935.945 60.19H885.688C873.516 60.19 865.583 62.505 855.247 76.4518L758.97 197.337C758.249 198.242 756.879 198.259 756.136 197.371L654.483 75.836C647.555 66.0166 636.377 60.19 624.467 60.19H574.383C554.003 60.19 542.05 72.3056 542.05 92.9624V414.658Z" fill="#202124"/>
<path fill-rule="evenodd" clip-rule="evenodd" d="M406.271 94.3105L413.499 100.982C432.481 119.04 440.127 144.187 440.127 171.999V362.2C440.127 417.162 388.561 463 331.836 463H184.533C153.852 463 131.192 455.93 107.492 438.632L25.6772 366.551C9.69666 349.008 0 325.964 0 300.726V99.5167C0 44.5551 45.9844 0 102.709 0H259.723C284.183 0 306.645 8.28421 324.285 22.1148L406.271 94.3105ZM156.665 121.841C137.475 121.841 121.918 137.388 121.918 156.566V306.432C121.918 325.61 137.475 341.157 156.665 341.157H282.241C301.431 341.157 316.988 325.61 316.988 306.432V156.566C316.988 137.388 301.431 121.841 282.241 121.841H156.665Z" fill="#202124"/>
</svg>
