<svg width="916" height="882" viewBox="0 0 916 882" fill="none" xmlns="http://www.w3.org/2000/svg">
<path fill-rule="evenodd" clip-rule="evenodd" d="M671.869 108.389L680.17 116.056C701.973 136.81 710.754 165.711 710.754 197.674V416.268C710.754 479.434 651.528 532.115 586.377 532.115H417.191C381.952 532.115 355.926 523.989 328.706 504.109L234.737 421.269C216.382 401.107 205.245 374.623 205.245 345.617V114.372C205.245 51.2061 258.061 -6.10352e-05 323.212 -6.10352e-05H503.551C531.644 -6.10352e-05 557.444 9.52079 577.704 25.416L671.869 108.389ZM385.184 140.028C363.143 140.028 345.275 157.896 345.275 179.937V352.174C345.275 374.215 363.143 392.083 385.184 392.083H529.415C551.456 392.083 569.324 374.215 569.324 352.174V179.937C569.324 157.896 551.456 140.028 529.415 140.028H385.184Z" fill="#FAFAFA"/>
<path fill-rule="evenodd" clip-rule="evenodd" d="M763.064 724.832V813.911L763.335 813.871C764.143 826.565 766.946 837.632 771.744 847.072C777.789 858.425 786.445 867.147 797.71 873.239C808.976 879.054 822.577 881.961 838.514 881.961C863.793 881.961 883.027 874.9 896.216 860.779C909.405 846.38 915.999 825.474 915.999 798.062C911.603 803.046 905.833 806.922 898.689 809.691C891.545 812.183 883.302 813.429 873.959 813.429C864.66 813.429 854.124 808.575 848.895 801.184C847.669 799.45 846.497 797.478 845.791 795.474C844.412 791.557 843.723 786.432 843.723 780.1L843.321 724.832H895.333C901.612 724.832 906.701 719.694 906.701 713.355V684.202C906.701 677.864 901.612 672.725 895.333 672.725H843.321V617.545C843.321 614.376 840.776 611.807 837.637 611.807H827.872C825.024 611.807 822.28 612.886 820.183 614.83L730.861 697.64C729.157 699.22 728.186 701.449 728.186 703.785V716.489C728.186 721.097 731.886 724.832 736.45 724.832H763.064ZM537.957 797.934C522.85 806.846 495.891 812.147 473.392 812.147C447.88 812.147 418.603 807.02 407.532 780.502L532.812 780.315C538.726 780.315 540.373 775.439 540.373 773.24C540.503 771.827 540.373 770.096 540.373 770.096C540.373 736.825 530.885 710.362 511.908 690.707C493.059 671.052 467.692 661.225 435.805 661.225C403.788 661.225 377.517 671.309 356.991 691.478C336.464 711.518 326.201 737.082 326.201 768.17C326.201 794.322 333.306 816.556 347.517 834.871C356.589 849.054 369.968 860.291 385.19 868.584C402.346 877.502 422.497 881.961 445.643 881.961C470.445 881.961 494.074 876.052 510.719 862.194C528.102 847.72 537.957 824.726 537.957 797.934ZM405.596 747.514H465.82V741.155C465.82 728.951 463.173 719.573 457.88 713.022C452.716 706.47 445.358 703.195 435.805 703.195C425.735 703.195 418.183 706.47 413.148 713.022C408.113 719.445 405.596 729.08 405.596 741.926V747.514ZM592.829 875.714C605.28 879.879 619.029 881.961 634.074 881.961C649.638 881.961 663.516 878.907 675.708 872.798C688.159 866.69 697.757 858.222 704.502 847.393C711.506 836.287 715.008 823.931 715.008 810.326C715.008 795.61 712.024 783.532 706.058 774.092C700.092 764.652 690.753 756.739 678.043 750.352L643.802 733.277C640.17 731.611 637.706 730.084 636.409 728.695C635.112 727.307 634.463 725.502 634.463 723.281C634.463 720.782 635.241 718.977 636.798 717.867C638.614 716.479 641.208 715.784 644.58 715.784C653.14 715.784 663.776 718.839 676.486 724.947C689.197 731.055 698.795 737.719 705.28 744.938V682.764C705.28 681.788 704.829 680.864 704.049 680.278C695.098 673.55 685.911 668.727 676.486 665.806C666.629 662.752 654.956 661.225 641.467 661.225C625.903 661.225 612.025 664.14 599.833 669.971C587.641 675.802 578.173 683.993 571.428 694.544C564.684 704.817 561.312 716.617 561.312 729.945C561.312 743.55 564.322 750.454 570.029 759.894C575.995 769.335 584.917 778.265 597.109 784.373L633.296 802.282C636.668 803.948 639.003 805.475 640.3 806.864C641.597 808.252 642.245 810.195 642.245 812.694C642.245 815.471 641.208 817.553 639.132 818.942C637.057 820.33 634.074 821.024 630.183 821.024C620.326 821.024 608.393 817.414 594.385 810.195C580.637 802.699 569.223 793.675 560.144 783.124V853.957C560.144 854.819 560.495 855.645 561.126 856.231C570.483 864.928 581.051 871.422 592.829 875.714ZM0 867.33C0 873.591 5.00517 878.667 11.1794 878.667H70.6792C76.8534 878.667 81.8585 873.591 81.8585 867.33V739.29L137.425 811.025C146.444 823.96 158.932 823.767 167.694 810.652L220.82 739.29V867.33C220.82 873.591 225.825 878.667 231.999 878.667H291.957C298.131 878.667 303.137 873.591 303.137 867.33V638.421C303.137 623.723 294.635 615.101 280.141 615.101H244.398C235.741 615.101 230.099 616.749 222.748 626.673L154.681 712.181C153.959 713.089 152.586 713.105 151.842 712.216L79.9631 626.235C75.0359 619.247 67.086 615.101 58.6154 615.101H22.9957C8.50127 615.101 0 623.723 0 638.421V867.33Z" fill="#FAFAFA"/>
</svg>
