<svg width="2500" height="1085" viewBox="0 0 2500 1085" fill="none" xmlns="http://www.w3.org/2000/svg">
<rect width="2500" height="1085" fill="white"/>
<path fill-rule="evenodd" clip-rule="evenodd" d="M741.313 405.265L748.539 411.939C767.519 430.002 775.163 455.158 775.163 482.979V673.243C775.163 728.223 723.606 774.077 666.892 774.077H519.614C488.938 774.077 466.282 767.005 442.587 749.7L360.786 677.596C344.808 660.047 335.114 636.995 335.114 611.748V410.473C335.114 355.493 381.09 310.923 437.804 310.923H594.791C619.246 310.923 641.705 319.21 659.342 333.045L741.313 405.265ZM491.751 432.804C472.564 432.804 457.01 448.356 457.01 467.541V617.456C457.01 636.641 472.564 652.193 491.751 652.193H617.305C636.492 652.193 652.046 636.641 652.046 617.456V467.541C652.046 448.356 636.492 432.804 617.305 432.804H491.751Z" fill="#202124"/>
<path fill-rule="evenodd" clip-rule="evenodd" d="M1949.89 511.499V636.727L1950.27 636.671C1951.41 654.517 1955.35 670.075 1962.09 683.346C1970.59 699.306 1982.76 711.568 1998.59 720.131C2014.43 728.306 2033.55 732.393 2055.96 732.393C2091.49 732.393 2118.53 722.467 2137.07 702.614C2155.62 682.373 2164.89 652.983 2164.89 614.446C2158.71 621.453 2150.59 626.903 2140.55 630.795C2130.51 634.299 2118.92 636.05 2105.79 636.05C2092.71 636.05 2077.9 629.225 2070.55 618.835C2068.83 616.397 2067.18 613.626 2066.19 610.809C2064.25 605.302 2063.28 598.097 2063.28 589.195L2062.71 511.499H2135.83C2144.66 511.499 2151.81 504.275 2151.81 495.365V454.381C2151.81 445.47 2144.66 438.247 2135.83 438.247H2062.71V360.674C2062.71 356.218 2059.14 352.607 2054.72 352.607H2041C2036.99 352.607 2033.14 354.124 2030.19 356.857L1904.62 473.272C1902.22 475.494 1900.86 478.627 1900.86 481.911V499.77C1900.86 506.247 1906.06 511.499 1912.47 511.499H1949.89ZM1633.43 614.267C1612.19 626.795 1574.29 634.248 1542.66 634.248C1506.8 634.248 1465.64 627.04 1450.08 589.761L1626.2 589.498C1634.51 589.498 1636.83 582.643 1636.83 579.552C1637.01 577.566 1636.83 575.132 1636.83 575.132C1636.83 528.359 1623.49 491.157 1596.81 463.526C1570.31 435.895 1534.65 422.08 1489.82 422.08C1444.81 422.08 1407.88 436.256 1379.02 464.609C1350.17 492.782 1335.74 528.72 1335.74 572.424C1335.74 609.189 1345.73 640.446 1365.71 666.194C1378.46 686.132 1397.27 701.93 1418.67 713.587C1442.78 726.124 1471.11 732.393 1503.65 732.393C1538.52 732.393 1571.74 724.086 1595.14 704.604C1619.57 684.257 1633.43 651.931 1633.43 614.267ZM1447.35 543.386H1532.02V534.446C1532.02 517.29 1528.3 504.107 1520.86 494.896C1513.6 485.686 1503.25 481.081 1489.82 481.081C1475.67 481.081 1465.05 485.686 1457.97 494.896C1450.89 503.926 1447.35 517.47 1447.35 535.53V543.386ZM1710.57 723.611C1728.07 729.466 1747.4 732.393 1768.55 732.393C1790.43 732.393 1809.94 728.099 1827.08 719.512C1844.59 710.925 1858.08 699.02 1867.56 683.797C1877.41 668.184 1882.33 650.814 1882.33 631.688C1882.33 611 1878.14 594.021 1869.75 580.749C1861.36 567.478 1848.23 556.354 1830.36 547.376L1782.23 523.371C1777.12 521.029 1773.66 518.882 1771.83 516.93C1770.01 514.979 1769.1 512.441 1769.1 509.319C1769.1 505.806 1770.19 503.269 1772.38 501.707C1774.93 499.756 1778.58 498.78 1783.32 498.78C1795.36 498.78 1810.31 503.074 1828.18 511.661C1846.04 520.248 1859.54 529.616 1868.65 539.765V451.729C1868.65 450.754 1868.2 449.833 1867.43 449.244C1854.69 439.588 1841.6 432.68 1828.18 428.52C1814.32 424.227 1797.91 422.08 1778.95 422.08C1757.07 422.08 1737.56 426.178 1720.42 434.375C1703.28 442.572 1689.97 454.087 1680.48 468.92C1671 483.362 1666.26 499.951 1666.26 518.687C1666.26 537.813 1670.49 547.519 1678.52 560.79C1686.9 574.061 1699.45 586.616 1716.59 595.203L1767.46 620.38C1772.2 622.722 1775.48 624.868 1777.3 626.82C1779.13 628.772 1780.04 631.504 1780.04 635.017C1780.04 638.92 1778.58 641.848 1775.66 643.8C1772.75 645.751 1768.55 646.727 1763.08 646.727C1749.22 646.727 1732.45 641.653 1712.76 631.504C1693.43 620.965 1677.38 608.279 1664.62 593.447V693.574C1664.62 694.435 1664.97 695.259 1665.6 695.847C1678.85 708.261 1693.84 717.516 1710.57 723.611ZM877.163 711.824C877.163 720.626 884.199 727.762 892.879 727.762H976.525C985.204 727.762 992.241 720.626 992.241 711.824V531.824L1070.36 632.671C1083.04 650.854 1100.59 650.583 1112.91 632.146L1187.59 531.824V711.824C1187.59 720.626 1194.63 727.762 1203.31 727.762H1287.6C1296.28 727.762 1303.32 720.626 1303.32 711.824V390.022C1303.32 369.358 1291.37 357.238 1270.99 357.238H1220.74C1208.57 357.238 1200.64 359.554 1190.31 373.505L1094.05 494.43C1093.32 495.336 1091.95 495.352 1091.21 494.464L989.576 372.889C982.649 363.067 971.473 357.238 959.565 357.238H909.491C889.114 357.238 877.163 369.358 877.163 390.022V711.824Z" fill="#202124"/>
</svg>
