<svg width="512" height="512" viewBox="0 0 512 512" fill="none" xmlns="http://www.w3.org/2000/svg">
  <circle cx="256" cy="256" r="256" fill="#202124"/>
  <rect width="512" height="512" fill="#202124"/>
  <path fill-rule="evenodd" clip-rule="evenodd"
        d="M383.107 162.367L388.037 166.921C400.985 179.245 406.2 196.408 406.2 215.39V345.203C406.2 382.715 371.028 413.999 332.338 413.999H231.865C210.939 413.999 195.483 409.174 179.318 397.368L123.514 348.173C112.614 336.2 106 320.472 106 303.246V165.92C106 128.409 137.365 97.9998 176.055 97.9998H283.151C299.834 97.9998 315.155 103.654 327.187 113.093L383.107 162.367ZM212.504 181.158C199.61 181.158 189.158 191.611 189.158 204.505V307.496C189.158 320.39 199.61 330.843 212.504 330.843H298.864C311.758 330.843 322.21 320.39 322.21 307.496V204.505C322.21 191.611 311.758 181.158 298.864 181.158H212.504Z"
        fill="#FEFEFE"/>
</svg>
